<svg xmlns="http://www.w3.org/2000/svg" viewBox="0 0 240 200" fill="none" role="img" aria-label="No inventory">
  <ellipse cx="120" cy="178" rx="80" ry="6" fill="currentColor" opacity="0.08"/>
  <path d="M60 80 L120 56 L180 80 L180 156 L120 180 L60 156 Z" fill="currentColor" opacity="0.06"/>
  <path d="M60 80 L120 56 L180 80 L120 104 Z" fill="#FFFFFF" stroke="currentColor" stroke-opacity="0.35" stroke-width="1.5" stroke-linejoin="round"/>
  <path d="M60 80 L60 156 L120 180 L120 104 Z" fill="#FFFFFF" stroke="currentColor" stroke-opacity="0.35" stroke-width="1.5" stroke-linejoin="round"/>
  <path d="M180 80 L180 156 L120 180 L120 104 Z" fill="#FFFFFF" stroke="currentColor" stroke-opacity="0.30" stroke-width="1.5" stroke-linejoin="round"/>
  <line x1="76" y1="98" x2="104" y2="86" stroke="currentColor" stroke-opacity="0.20" stroke-width="1"/>
  <line x1="136" y1="86" x2="164" y2="98" stroke="currentColor" stroke-opacity="0.20" stroke-width="1"/>
  <line x1="76" y1="116" x2="76" y2="148" stroke="currentColor" stroke-opacity="0.18" stroke-width="1"/>
  <line x1="104" y1="128" x2="104" y2="160" stroke="currentColor" stroke-opacity="0.18" stroke-width="1"/>
  <line x1="136" y1="128" x2="136" y2="160" stroke="currentColor" stroke-opacity="0.18" stroke-width="1"/>
  <line x1="164" y1="116" x2="164" y2="148" stroke="currentColor" stroke-opacity="0.18" stroke-width="1"/>
  <circle cx="160" cy="56" r="12" fill="#007AFF"/>
  <path d="M156 56 h8 M160 52 v8" stroke="#FFFFFF" stroke-width="2.2" stroke-linecap="round"/>
</svg>
